name C:\Users\r0593348\3dpredictsim\Results\Batchsim_tmt_linear\Pog_s1_tmt_aCst_d00_k500_ig24_pas.mot
datacolumns 128
datarows 4
range 1.66637899 1.69970657
endheader
time	pelvis_tilt	pelvis_list	pelvis_rotation	pelvis_tx	pelvis_ty	pelvis_tz	hip_flexion_l	hip_adduction_l	hip_rotation_l	hip_flexion_r	hip_adduction_r	hip_rotation_r	knee_angle_l	knee_angle_r	ankle_angle_l	ankle_angle_r	subtalar_angle_l	subtalar_angle_r	tmt_angle_l	tmt_angle_r	mtp_angle_l	mtp_angle_r	lumbar_extension	lumbar_bending	lumbar_rotation	arm_flex_l	arm_add_l	arm_rot_l	arm_flex_r	arm_add_r	arm_rot_r	elbow_flex_l	elbow_flex_r	pro_sup_l	pro_sup_r	glut_med1_l/activation	glut_med2_l/activation	glut_med3_l/activation	glut_min1_l/activation	glut_min2_l/activation	glut_min3_l/activation	semimem_l/activation	semiten_l/activation	bifemlh_l/activation	bifemsh_l/activation	sar_l/activation	add_long_l/activation	add_brev_l/activation	add_mag1_l/activation	add_mag2_l/activation	add_mag3_l/activation	tfl_l/activation	pect_l/activation	grac_l/activation	glut_max1_l/activation	glut_max2_l/activation	glut_max3_l/activation	iliacus_l/activation	psoas_l/activation	quad_fem_l/activation	gem_l/activation	peri_l/activation	rect_fem_l/activation	vas_med_l/activation	vas_int_l/activation	vas_lat_l/activation	med_gas_l/activation	lat_gas_l/activation	soleus_l/activation	tib_post_l/activation	flex_dig_l/activation	flex_hal_l/activation	tib_ant_l/activation	per_brev_l/activation	per_long_l/activation	per_tert_l/activation	ext_dig_l/activation	ext_hal_l/activation	ercspn_l/activation	intobl_l/activation	extobl_l/activation	glut_med1_r/activation	glut_med2_r/activation	glut_med3_r/activation	glut_min1_r/activation	glut_min2_r/activation	glut_min3_r/activation	semimem_r/activation	semiten_r/activation	bifemlh_r/activation	bifemsh_r/activation	sar_r/activation	add_long_r/activation	add_brev_r/activation	add_mag1_r/activation	add_mag2_r/activation	add_mag3_r/activation	tfl_r/activation	pect_r/activation	grac_r/activation	glut_max1_r/activation	glut_max2_r/activation	glut_max3_r/activation	iliacus_r/activation	psoas_r/activation	quad_fem_r/activation	gem_r/activation	peri_r/activation	rect_fem_r/activation	vas_med_r/activation	vas_int_r/activation	vas_lat_r/activation	med_gas_r/activation	lat_gas_r/activation	soleus_r/activation	tib_post_r/activation	flex_dig_r/activation	flex_hal_r/activation	tib_ant_r/activation	per_brev_r/activation	per_long_r/activation	per_tert_r/activation	ext_dig_r/activation	ext_hal_r/activation	ercspn_r/activation	intobl_r/activation	extobl_r/activation	
          1.66637899	         -2.92547542	          2.32281169	         -6.13828930	          2.08297374	          0.85540053	          0.00356829	         32.25609717	          3.02619854	         -3.35980295	        -18.43273909	         -1.96913403	          7.97107907	        -15.78335582	         -8.25899619	          5.98514711	         -0.36090369	         -2.51070840	         11.94868879	          0.06555994	          2.03635868	         -0.10181036	         22.13497371	         -2.31874781	         -0.96624800	          1.98957794	         -9.22106925	        -13.59702513	          7.98728243	          7.92255102	        -13.47679265	         17.94476120	         13.82295371	         39.84207916	         86.51662706	         86.51662706	          0.05925763	          0.05925694	          0.05000043	          0.05925717	          0.05925639	          0.05915756	          0.05925768	          0.05925764	          0.29754115	          0.05000074	          0.05000037	          0.11690926	          0.23860618	          0.12187559	          0.17322393	          0.10840727	          0.05000085	          0.05005674	          0.06862130	          0.05000354	          0.05000941	          0.12123542	          0.05925710	          0.06263362	          0.32492500	          0.05034512	          0.09592428	          0.05000011	          0.12719333	          0.13448640	          0.11048468	          0.05925762	          0.05925753	          0.05925764	          0.05000021	          0.05000320	          0.05000565	          0.52398723	          0.35979321	          0.21193117	          0.27221387	          0.56868093	          0.21749196	          0.06107070	          0.09389340	          0.09107906	          0.24974790	          0.09864258	          0.05334384	          0.32533955	          0.20639272	          0.10077654	          0.05000238	          0.05000020	          0.05000015	          0.07707875	          0.10801936	          0.11644453	          0.05000082	          0.05000057	          0.05000106	          0.05000071	          0.31908039	          0.05746116	          0.05000053	          0.05000223	          0.05000144	          0.05000102	          0.38587656	          0.61353763	          0.05000011	          0.05000039	          0.05000011	          0.22833825	          0.11699907	          0.05004560	          0.06463296	          0.30238282	          0.40666234	          0.27999969	          0.25658018	          0.28884937	          0.35841280	          0.05000001	          0.07023056	          0.17764844	          0.05000012	          0.05000003	          0.05000009	          0.05000002	          0.05000002	          0.05000004	
          1.67748819	         -2.91532169	          2.43586637	         -6.39009599	          2.10006830	          0.85429906	          0.00333166	         31.62646026	          3.48997738	         -3.16654703	        -18.11293953	         -2.28965105	          7.77491003	        -15.78902175	        -10.56781609	          5.37599539	         -1.37574014	         -3.02391210	         13.07006996	          0.06497018	          1.91713867	         -0.09495984	         23.24770036	         -2.09702247	         -1.22044284	          2.08436097	        -10.37827467	        -13.59243063	          7.76835253	          7.62849767	        -13.50833084	         18.11541412	         13.77299232	         41.10590139	         86.51662706	         86.51662706	          0.05000002	          0.05000005	          0.05842357	          0.05000005	          0.05000007	          0.05000008	          0.05000005	          0.05000008	          0.25105723	          0.05000008	          0.05925734	          0.09864512	          0.21713410	          0.36854838	          0.23918772	          0.09147137	          0.05000013	          0.05001555	          0.05790104	          0.05649021	          0.05925930	          0.15085730	          0.05000018	          0.05926039	          0.61216242	          0.16891752	          0.15546652	          0.07022947	          0.24199517	          0.24408451	          0.20644580	          0.05000000	          0.05000002	          0.05000000	          0.05000030	          0.07022803	          0.05000112	          0.62527627	          0.30358398	          0.21053031	          0.47753206	          0.61836571	          0.24919673	          0.05152980	          0.07922469	          0.07685003	          0.21073052	          0.08323194	          0.05925799	          0.27451276	          0.17414861	          0.08503254	          0.05000232	          0.05000024	          0.05000037	          0.06503697	          0.09114394	          0.20833335	          0.19246837	          0.08442711	          0.05015661	          0.05006008	          0.26923152	          0.09996926	          0.05000374	          0.05000249	          0.05000143	          0.05000165	          0.32559216	          0.54312779	          0.06080544	          0.05927015	          0.05925782	          0.19266564	          0.13855320	          0.13855332	          0.13855319	          0.25514239	          0.34313061	          0.23625612	          0.21649544	          0.24372345	          0.30241910	          0.05000001	          0.05925868	          0.14989499	          0.05000006	          0.05000001	          0.05000009	          0.05952836	          0.07022943	          0.05000011	
          1.68859738	         -2.90051463	          2.55286273	         -6.61183717	          2.11743345	          0.85311869	          0.00311475	         30.82322736	          3.87678252	         -2.88091379	        -17.69997174	         -2.59510257	          7.55992392	        -16.19013567	        -13.03045533	          4.82591691	         -2.54912608	         -3.56680260	         14.11155029	         -0.06836217	          1.75104481	         -0.15330714	         24.15464928	         -1.85490547	         -1.48310347	          2.16706421	        -11.53138487	        -13.59462085	          7.61181210	          7.24226142	        -13.54061230	         18.20329130	         13.73193613	         42.35162881	         86.51662706	         86.51662706	          0.30102916	          0.26643009	          0.26601554	          0.05000160	          0.05000057	          0.22383179	          0.09512907	          0.11640282	          0.21785558	          0.05000042	          0.05000073	          0.08323425	          0.20217595	          0.31097121	          0.20182202	          0.14382517	          0.05000033	          0.07022836	          0.15253442	          0.05000011	          0.05000144	          0.12728949	          0.05925758	          0.05000366	          0.51652600	          0.14252807	          0.24117734	          0.05925772	          0.20418897	          0.20595191	          0.17419338	          0.05925760	          0.05925758	          0.05925764	          0.05000012	          0.05925729	          0.05925762	          0.52834384	          0.41138619	          0.20414575	          0.40292924	          0.64725614	          0.21026549	          0.05641291	          0.08323269	          0.06484397	          0.31266731	          0.07022887	          0.05000043	          0.23162672	          0.14694191	          0.07174818	          0.06430839	          0.05000017	          0.05000018	          0.05487644	          0.07690493	          0.17578730	          0.27242523	          0.07123768	          0.05925729	          0.05001607	          0.23453210	          0.08436214	          0.05000179	          0.05003046	          0.05009480	          0.05925484	          0.27472584	          0.49671503	          0.05925740	          0.05001093	          0.05000018	          0.16256602	          0.11690749	          0.11690757	          0.11690746	          0.21528220	          0.28952427	          0.19934648	          0.18267298	          0.20564730	          0.25517306	          0.05000014	          0.05000112	          0.18686531	          0.05000010	          0.12564197	          0.05000027	          0.07717154	          0.05925768	          0.05000007	
          1.69970657	         -2.88291970	          2.66538186	         -6.79808120	          2.13485551	          0.85188199	          0.00288287	         29.88194211	          4.21565840	         -2.57898490	        -17.16994438	         -2.87513889	          7.33703306	        -16.57738451	        -15.66583560	          4.46874767	         -3.77541068	         -4.13371265	         15.05940973	         -0.01723229	          1.47778684	         -0.17122130	         24.66101669	         -1.61305210	         -1.74172557	          2.23957006	        -12.62676784	        -13.59924060	          7.53396110	          6.80144636	        -13.57921574	         18.22876746	         13.66336052	         43.55400523	         86.51662706	         86.51662706	          0.40514006	          0.42570717	          0.45057346	          0.24991657	          0.24014318	          0.31101238	          0.08099752	          0.12204100	          0.18382062	          0.07022979	          0.05000053	          0.07023082	          0.17059060	          0.26238921	          0.22482724	          0.17177879	          0.05000019	          0.05925720	          0.12870490	          0.25714866	          0.19244037	          0.16629021	          0.05000008	          0.05000008	          0.43583061	          0.12026141	          0.20349956	          0.05000007	          0.21682463	          0.25775583	          0.19743535	          0.05000002	          0.05000005	          0.05000000	          0.05000000	          0.05000013	          0.05000011	          0.68660849	          0.34711665	          0.17225281	          0.65697657	          0.68757215	          0.39302040	          0.08380736	          0.07022950	          0.05471359	          0.26382023	          0.05925723	          0.05000002	          0.21326550	          0.12398564	          0.06053920	          0.08943539	          0.05000017	          0.05000017	          0.05000010	          0.06489061	          0.19444689	          0.22986529	          0.06010860	          0.05000083	          0.05000097	          0.19789294	          0.07118355	          0.05000024	          0.05000054	          0.05000033	          0.05000022	          0.23180620	          0.43300974	          0.05000003	          0.05000020	          0.05000012	          0.13716879	          0.09864339	          0.09864345	          0.09864336	          0.18164926	          0.24429270	          0.16820313	          0.15413452	          0.17351970	          0.21530817	          0.16786491	          0.12590789	          0.15767200	          0.28986085	          0.23720963	          0.13415468	          0.10655584	          0.05000003	          0.05000003	
